<svg width="1440" height="377" viewBox="0 0 1440 377" fill="none" xmlns="http://www.w3.org/2000/svg">
<g clip-path="url(#clip0_89_30)">
<path d="M961.291 275.388V210.069H1007.25V213.728C1007.25 216.851 1005.46 218.635 1002.25 218.635H971.552V238.891H999.661V242.371C999.661 245.584 997.876 247.368 994.664 247.368H971.552V266.821H1002.16C1005.28 266.821 1007.25 268.874 1007.25 271.907V275.388H961.291Z" fill="#2B2425"/>
<path d="M1024.85 270.747C1024.85 273.424 1022.89 275.388 1020.21 275.388H1015.48V228.808H1020.21C1022.89 228.808 1024.85 230.771 1024.85 233.448V235.947C1028.24 232.02 1033.69 228.005 1041.45 228.005C1051.89 228.005 1059.21 235.5 1059.21 247.547V275.388H1054.48C1051.8 275.388 1049.84 273.424 1049.84 270.747V249.332C1049.84 241.122 1045.55 236.571 1038.33 236.571C1030.21 236.571 1024.85 242.282 1024.85 250.045V270.747Z" fill="#2B2425"/>
<path d="M1084.26 262.716C1084.26 266.286 1085.69 267.892 1088.55 268.07C1089.62 268.07 1090.69 267.892 1091.4 267.803C1093.19 267.535 1095.15 268.249 1095.69 270.658L1096.4 274.138C1096.4 274.138 1092.92 276.28 1087.12 276.28C1079.53 276.28 1074.89 272.264 1074.89 265.037V237.374H1068.2V233.448C1068.2 230.771 1070.17 228.808 1072.84 228.808H1074.89V221.491C1074.89 218.814 1076.86 216.851 1079.53 216.851H1084.26V228.808H1094.61V232.734C1094.61 235.411 1092.65 237.374 1089.97 237.374H1084.26V262.716Z" fill="#2B2425"/>
<path d="M1125.07 235.857C1117.3 235.857 1111.5 241.033 1111.06 248.975H1137.74C1137.38 241.211 1133.45 235.857 1125.07 235.857ZM1101.42 252.187C1101.42 236.304 1112.66 227.916 1125.16 227.916C1138.81 227.916 1147.46 236.75 1147.46 252.365C1147.46 253.526 1147.37 254.775 1147.37 255.756H1111.06C1111.59 262.716 1117.75 268.338 1127.12 268.338C1131.67 268.338 1135.06 267.089 1137.11 266.018C1139.25 265.037 1141.49 264.947 1143.27 266.91L1145.41 269.141C1145.41 269.141 1139.52 276.28 1126.58 276.28C1110.79 276.28 1101.42 266.286 1101.42 252.187Z" fill="#2B2425"/>
<path d="M1157.78 275.388V228.808H1162.51C1165.19 228.808 1167.15 230.771 1167.15 233.448V239.07C1169.83 233.984 1174.65 228.451 1184.46 228.451V233.627C1184.46 236.304 1182.77 238.356 1179.91 238.534C1178.4 238.802 1176.61 239.337 1175.27 240.141C1170.28 242.371 1167.15 248.172 1167.15 257.541V270.747C1167.15 273.424 1165.19 275.388 1162.51 275.388H1157.78Z" fill="#2B2425"/>
<path d="M1197.02 228.808C1199.69 228.808 1201.66 230.771 1201.66 233.448V236.393C1205.14 231.396 1210.49 227.916 1217.54 227.916C1229.5 227.916 1238.69 237.285 1238.69 252.098C1238.69 266.91 1228.87 276.28 1217.54 276.28C1210.49 276.28 1205.14 272.978 1201.66 268.16V289.665C1201.66 292.342 1199.69 294.305 1197.02 294.305H1192.47V228.808H1197.02ZM1201.39 252.098C1201.39 261.11 1206.48 267.714 1215.04 267.714C1223.61 267.714 1229.32 261.11 1229.32 252.098C1229.32 243.264 1223.61 236.482 1215.04 236.482C1206.48 236.482 1201.39 243.264 1201.39 252.098Z" fill="#2B2425"/>
<path d="M1248.76 275.388V228.808H1253.49C1256.17 228.808 1258.13 230.771 1258.13 233.448V239.07C1260.81 233.984 1265.62 228.451 1275.44 228.451V233.627C1275.44 236.304 1273.75 238.356 1270.89 238.534C1269.37 238.802 1267.59 239.337 1266.25 240.141C1261.25 242.371 1258.13 248.172 1258.13 257.541V270.747C1258.13 273.424 1256.17 275.388 1253.49 275.388H1248.76Z" fill="#2B2425"/>
<path d="M1289.24 275.388C1286.57 275.388 1284.6 273.424 1284.6 270.747V228.808H1289.24C1291.92 228.808 1293.88 230.771 1293.88 233.448V275.388H1289.24ZM1283.44 217.386C1283.44 214.442 1285.85 211.854 1289.24 211.854C1292.54 211.854 1294.95 214.352 1294.95 217.386C1294.95 220.509 1292.63 223.097 1289.24 223.097C1285.85 223.097 1283.44 220.509 1283.44 217.386Z" fill="#2B2425"/>
<path d="M1324.78 276.637C1316.22 276.637 1309.79 274.584 1304.8 270.747L1305.96 268.606C1307.29 266.018 1310.24 265.572 1313 266.643C1316.4 268.16 1320.5 269.141 1324.43 269.141C1329.69 269.141 1333.26 267.446 1333.26 263.52C1333.26 252.009 1305.24 260.664 1305.24 242.014C1305.24 232.288 1313.9 228.094 1322.82 228.094C1329.6 228.094 1335.67 229.879 1339.77 232.734L1338.79 234.965C1337.54 237.642 1334.78 238.356 1332.28 237.464C1329.33 236.214 1326.03 235.59 1322.82 235.59C1319.34 235.59 1314.52 236.75 1314.52 241.301C1314.52 252.009 1342.36 243.264 1342.36 262.895C1342.36 271.818 1334.78 276.637 1324.78 276.637Z" fill="#2B2425"/>
<path d="M1372.98 235.857C1365.22 235.857 1359.42 241.033 1358.97 248.975H1385.65C1385.3 241.211 1381.37 235.857 1372.98 235.857ZM1349.34 252.187C1349.34 236.304 1360.58 227.916 1373.07 227.916C1386.73 227.916 1395.38 236.75 1395.38 252.365C1395.38 253.526 1395.29 254.775 1395.29 255.756H1358.97C1359.51 262.716 1365.67 268.338 1375.04 268.338C1379.59 268.338 1382.98 267.089 1385.03 266.018C1387.17 265.037 1389.4 264.947 1391.19 266.91L1393.33 269.141C1393.33 269.141 1387.44 276.28 1374.5 276.28C1358.71 276.28 1349.34 266.286 1349.34 252.187Z" fill="#2B2425"/>
<path d="M1422.12 276.637C1413.55 276.637 1407.13 274.584 1402.13 270.747L1403.29 268.606C1404.63 266.018 1407.58 265.572 1410.34 266.643C1413.73 268.16 1417.84 269.141 1421.76 269.141C1427.03 269.141 1430.6 267.446 1430.6 263.52C1430.6 252.009 1402.58 260.664 1402.58 242.014C1402.58 232.288 1411.23 228.094 1420.16 228.094C1426.94 228.094 1433.01 229.879 1437.11 232.734L1436.13 234.965C1434.88 237.642 1432.11 238.356 1429.62 237.464C1426.67 236.214 1423.37 235.59 1420.16 235.59C1416.68 235.59 1411.86 236.75 1411.86 241.301C1411.86 252.009 1439.7 243.264 1439.7 262.895C1439.7 271.818 1432.11 276.637 1422.12 276.637Z" fill="#2B2425"/>
<path d="M319 174.183V0H441.546V9.75613C441.546 18.0845 436.787 22.8436 428.221 22.8436H346.365V76.8593H421.32V86.1395C421.32 94.7058 416.561 99.4649 407.995 99.4649H346.365V151.339H427.983C436.311 151.339 441.546 156.812 441.546 164.902V174.183H319Z" fill="#2B2425"/>
<path d="M464.701 174.183V0H478.502C486.83 0 492.065 5.235 492.065 13.5634V83.284L553.933 7.37659C557.503 2.37954 563.214 0 569.638 0H593.434L519.192 90.6606L598.907 174.183H572.97C567.021 174.183 562.024 172.041 557.979 167.758L492.065 98.989V160.619C492.065 168.948 486.83 174.183 478.502 174.183H464.701Z" fill="#2B2425"/>
<path d="M648.79 177.752C619.759 177.99 601.437 164.426 592.157 144.438L603.103 139.679C610.241 136.11 614.762 137.538 619.283 142.773C625.708 149.911 633.799 154.194 645.696 154.194C678.058 154.194 683.055 127.544 683.055 112.077V13.5634C683.055 5.235 688.29 0 696.619 0H710.42V112.552C710.42 154.908 684.959 177.276 648.79 177.752Z" fill="#2B2425"/>
<path d="M720.55 174.183L806.927 0H815.494L902.109 174.183H882.597C875.696 174.183 870.223 170.851 867.13 164.664L855.946 141.107H766.713L755.291 164.664C752.436 170.851 746.725 174.183 739.824 174.183H720.55ZM775.517 120.643H847.141L811.21 44.0216L775.517 120.643Z" fill="#2B2425"/>
<path d="M932.069 174.183C924.216 174.183 919.695 169.423 919.695 160.857V0H933.735C942.301 0 947.06 4.7591 947.06 13.3254V78.5249H1043.19V0H1056.99C1065.8 0 1070.56 4.7591 1070.56 13.3254V174.183H1056.52C1047.95 174.183 1043.19 169.423 1043.19 160.857V101.369H947.06V174.183H932.069Z" fill="#2B2425"/>
<path d="M1088.17 174.183L1174.55 0H1183.11L1269.73 174.183H1250.22C1243.32 174.183 1237.84 170.851 1234.75 164.664L1223.57 141.107H1134.33L1122.91 164.664C1120.06 170.851 1114.35 174.183 1107.44 174.183H1088.17ZM1143.14 120.643H1214.76L1178.83 44.0216L1143.14 120.643Z" fill="#2B2425"/>
<path d="M1288.01 174.183V0H1297.53L1412.46 120.405V14.0393C1412.46 5.47295 1417.94 0 1426.5 0H1439.83V174.183H1430.07L1315.38 53.7777V160.143C1315.38 168.71 1309.91 174.183 1301.58 174.183H1288.01Z" fill="#2B2425"/>
<rect width="290" height="290" fill="#2B2425"/>
<path d="M115.591 149.707L183.56 188.949L183.56 245.568C183.56 250.615 179.436 254.69 174.389 254.63L124.545 254.033C119.583 253.974 115.591 249.934 115.591 244.972L115.591 149.707Z" fill="#F9E615"/>
<path d="M170.279 37.4642C176.321 33.976 183.873 38.3362 183.873 45.3125V147.341L95.5137 96.3268C89.472 92.8387 89.472 84.1183 95.5137 80.6301L170.279 37.4642Z" fill="white"/>
<path d="M23.3378 373V355.048L7.11376 331.24L5.38576 328.84H15.1778L28.6178 349.864L42.2498 328.84H48.9698L46.8578 331.528L30.6338 355.048V369.64C30.6978 370.472 30.6338 371.144 30.4418 371.656C30.2498 372.104 29.9298 372.456 29.4818 372.712C29.0338 372.904 28.3298 373 27.3698 373H23.3378ZM67.8765 373.576C64.9325 373.576 62.2765 373.352 59.9085 372.904C57.6045 372.456 55.5885 371.56 53.8605 370.216C52.1965 368.872 50.9165 366.888 50.0205 364.264C49.1245 361.64 48.6765 358.184 48.6765 353.896C48.6765 349.608 49.1245 346.152 50.0205 343.528C50.9165 340.904 52.1965 338.92 53.8605 337.576C55.5885 336.232 57.6045 335.336 59.9085 334.888C62.2765 334.44 64.9325 334.216 67.8765 334.216C70.7565 334.216 73.3485 334.44 75.6525 334.888C78.0205 335.336 80.0365 336.232 81.7005 337.576C83.3645 338.92 84.6445 340.904 85.5405 343.528C86.4365 346.152 86.8845 349.608 86.8845 353.896C86.8845 358.248 86.4365 361.736 85.5405 364.36C84.6445 366.984 83.3645 368.968 81.7005 370.312C80.0365 371.592 78.0205 372.456 75.6525 372.904C73.3485 373.352 70.7565 373.576 67.8765 373.576ZM67.8765 369.832C70.4365 369.832 72.6125 369.448 74.4045 368.68C76.2605 367.912 77.6685 366.408 78.6285 364.168C79.5885 361.928 80.0685 358.504 80.0685 353.896C80.0685 349.288 79.5885 345.864 78.6285 343.624C77.6685 341.384 76.2605 339.88 74.4045 339.112C72.6125 338.344 70.4365 337.96 67.8765 337.96C65.3165 337.96 63.1085 338.344 61.2525 339.112C59.4605 339.88 58.0525 341.384 57.0285 343.624C56.0685 345.864 55.5885 349.288 55.5885 353.896C55.5885 358.504 56.0685 361.928 57.0285 364.168C58.0525 366.408 59.4605 367.912 61.2525 368.68C63.1085 369.448 65.3165 369.832 67.8765 369.832ZM102.756 334.696V360.712C102.756 363.912 103.652 366.184 105.444 367.528C107.3 368.808 110.116 369.448 113.892 369.448C117.924 369.448 120.804 368.776 122.532 367.432C124.324 366.024 125.22 363.784 125.22 360.712V334.696C125.284 334.696 125.476 334.696 125.796 334.696C126.18 334.696 126.564 334.696 126.948 334.696C127.396 334.696 127.812 334.696 128.196 334.696C128.58 334.696 128.836 334.696 128.964 334.696C129.732 334.696 130.34 334.76 130.788 334.888C131.236 334.952 131.524 335.176 131.652 335.56C131.844 335.944 131.94 336.584 131.94 337.48V359.464C131.94 362.664 131.46 365.32 130.5 367.432C129.54 369.48 127.748 371.016 125.124 372.04C122.5 373 118.724 373.48 113.796 373.48C109.316 373.48 105.764 373.064 103.14 372.232C100.58 371.4 98.756 369.992 97.668 368.008C96.58 366.024 96.036 363.336 96.036 359.944V337.48C96.036 336.392 96.196 335.656 96.516 335.272C96.9 334.888 97.604 334.696 98.628 334.696C99.332 334.696 100.004 334.696 100.644 334.696C101.348 334.696 102.052 334.696 102.756 334.696ZM149.276 373H145.052C144.22 373 143.58 372.808 143.132 372.424C142.748 371.976 142.556 371.176 142.556 370.024V336.616C143.964 336.168 145.884 335.688 148.316 335.176C150.812 334.664 153.884 334.408 157.532 334.408C160.988 334.408 163.708 334.664 165.692 335.176C167.74 335.624 169.212 336.264 170.108 337.096C171.068 337.928 171.676 338.952 171.932 340.168C172.252 341.32 172.412 342.632 172.412 344.104H165.98L165.884 342.76C165.82 341.288 165.34 340.232 164.444 339.592C163.548 338.888 162.492 338.472 161.276 338.344C160.06 338.152 158.844 338.056 157.628 338.056C155.772 338.056 154.108 338.216 152.636 338.536C151.228 338.856 150.108 339.272 149.276 339.784V373ZM629.35 373.672C625.51 373.672 622.118 373.384 619.174 372.808C616.23 372.232 613.702 371.176 611.59 369.64C609.542 368.04 607.974 365.736 606.886 362.728C605.798 359.72 605.254 355.752 605.254 350.824C605.254 345.832 605.83 341.832 606.982 338.824C608.198 335.752 609.894 333.448 612.07 331.912C614.246 330.376 616.838 329.352 619.846 328.84C622.918 328.328 626.342 328.072 630.118 328.072C633.894 328.072 637.254 328.36 640.198 328.936C643.142 329.448 645.638 330.504 647.686 332.104C649.798 333.64 651.398 335.912 652.486 338.92C653.574 341.928 654.118 345.896 654.118 350.824C654.118 355.88 653.51 359.912 652.294 362.92C651.142 365.928 649.478 368.232 647.302 369.832C645.19 371.368 642.598 372.392 639.526 372.904C636.518 373.416 633.126 373.672 629.35 373.672ZM629.638 369.544C632.326 369.544 634.726 369.32 636.838 368.872C638.95 368.36 640.71 367.464 642.118 366.184C643.59 364.904 644.678 363.048 645.382 360.616C646.15 358.12 646.534 354.856 646.534 350.824C646.534 346.856 646.15 343.656 645.382 341.224C644.678 338.728 643.59 336.84 642.118 335.56C640.71 334.216 638.95 333.32 636.838 332.872C634.726 332.424 632.326 332.2 629.638 332.2C626.886 332.2 624.454 332.424 622.342 332.872C620.294 333.32 618.566 334.216 617.158 335.56C615.75 336.84 614.662 338.728 613.894 341.224C613.19 343.656 612.838 346.856 612.838 350.824C612.838 354.856 613.19 358.12 613.894 360.616C614.662 363.048 615.75 364.904 617.158 366.184C618.566 367.464 620.294 368.36 622.342 368.872C624.454 369.32 626.886 369.544 629.638 369.544ZM670.019 334.696V360.712C670.019 363.912 670.915 366.184 672.707 367.528C674.563 368.808 677.379 369.448 681.155 369.448C685.187 369.448 688.067 368.776 689.795 367.432C691.587 366.024 692.483 363.784 692.483 360.712V334.696C692.547 334.696 692.739 334.696 693.059 334.696C693.443 334.696 693.827 334.696 694.211 334.696C694.659 334.696 695.075 334.696 695.459 334.696C695.843 334.696 696.099 334.696 696.227 334.696C696.995 334.696 697.603 334.76 698.051 334.888C698.499 334.952 698.787 335.176 698.915 335.56C699.107 335.944 699.203 336.584 699.203 337.48V359.464C699.203 362.664 698.723 365.32 697.763 367.432C696.803 369.48 695.011 371.016 692.387 372.04C689.763 373 685.987 373.48 681.059 373.48C676.579 373.48 673.027 373.064 670.403 372.232C667.843 371.4 666.019 369.992 664.931 368.008C663.843 366.024 663.299 363.336 663.299 359.944V337.48C663.299 336.392 663.459 335.656 663.779 335.272C664.163 334.888 664.867 334.696 665.891 334.696C666.595 334.696 667.267 334.696 667.907 334.696C668.611 334.696 669.315 334.696 670.019 334.696ZM716.539 373H712.315C711.483 373 710.843 372.808 710.395 372.424C710.011 371.976 709.819 371.176 709.819 370.024V336.616C711.227 336.168 713.147 335.688 715.579 335.176C718.075 334.664 721.147 334.408 724.795 334.408C728.251 334.408 730.971 334.664 732.955 335.176C735.003 335.624 736.475 336.264 737.371 337.096C738.331 337.928 738.939 338.952 739.195 340.168C739.515 341.32 739.675 342.632 739.675 344.104H733.243L733.147 342.76C733.083 341.288 732.603 340.232 731.707 339.592C730.811 338.888 729.755 338.472 728.539 338.344C727.323 338.152 726.107 338.056 724.891 338.056C723.035 338.056 721.371 338.216 719.899 338.536C718.491 338.856 717.371 339.272 716.539 339.784V373Z" fill="#2B2425"/>
<path d="M204.137 328.84H260.585L259.241 338.728H240.521L236.585 367.048C236.329 368.584 235.977 369.8 235.529 370.696C235.145 371.592 234.505 372.2 233.609 372.52C232.713 372.84 231.337 373 229.481 373H216.809L221.609 338.728H202.697L204.137 328.84ZM304.751 359.368C304.751 359.368 304.207 359.368 303.119 359.368C302.095 359.368 300.815 359.4 299.279 359.464C297.807 359.464 296.367 359.464 294.959 359.464L293.039 373H274.127L279.407 335.08C279.663 333.224 280.271 331.72 281.231 330.568C282.255 329.416 284.175 328.84 286.991 328.84C287.951 328.84 289.455 328.84 291.503 328.84C293.615 328.776 296.015 328.744 298.703 328.744C301.391 328.744 304.175 328.744 307.055 328.744C309.999 328.68 312.783 328.68 315.407 328.744C318.095 328.744 320.431 328.776 322.415 328.84C324.399 328.84 325.775 328.872 326.543 328.936C329.935 329.256 332.399 330.28 333.935 332.008C335.535 333.736 336.047 336.616 335.471 340.648C334.895 344.488 334.287 347.208 333.647 348.808C333.007 350.408 332.079 351.624 330.863 352.456C330.287 352.904 329.519 353.256 328.559 353.512C327.599 353.704 326.575 353.8 325.487 353.8L325.391 354.28C325.903 354.28 326.447 354.28 327.023 354.28C327.663 354.28 328.207 354.312 328.655 354.376C330.255 354.696 331.343 355.208 331.919 355.912C332.559 356.616 332.911 357.448 332.975 358.408C333.039 359.368 333.007 360.36 332.879 361.384L331.727 369.064C331.535 370.408 331.535 371.4 331.727 372.04C331.983 372.616 332.143 372.936 332.207 373H317.999C316.079 373 314.607 372.712 313.583 372.136C312.623 371.56 312.271 370.344 312.527 368.488L313.199 363.688C313.519 361.704 313.263 360.488 312.431 360.04C311.599 359.592 310.095 359.368 307.919 359.368H304.751ZM296.207 350.536C296.783 350.536 297.679 350.568 298.895 350.632C300.175 350.632 301.551 350.632 303.023 350.632C304.559 350.632 305.967 350.632 307.247 350.632C308.527 350.632 309.423 350.632 309.935 350.632C311.279 350.632 312.495 350.184 313.583 349.288C314.735 348.392 315.471 346.76 315.791 344.392C316.047 342.728 315.951 341.416 315.503 340.456C315.119 339.496 314.287 338.92 313.007 338.728C312.239 338.6 311.183 338.536 309.839 338.536C308.559 338.536 307.183 338.536 305.711 338.536C304.303 338.536 302.991 338.568 301.775 338.632C300.623 338.632 299.791 338.632 299.279 338.632C299.151 338.632 298.863 338.728 298.415 338.92C298.031 339.048 297.775 339.432 297.647 340.072L296.207 350.536ZM412.973 350.056C412.461 353.32 411.885 356.232 411.245 358.792C410.669 361.352 409.773 363.56 408.557 365.416C407.341 367.208 405.613 368.68 403.373 369.832C401.197 370.984 398.317 371.848 394.733 372.424C391.213 372.936 386.765 373.192 381.389 373.192C375.821 373.192 371.309 372.936 367.853 372.424C364.397 371.848 361.741 370.984 359.885 369.832C358.093 368.68 356.877 367.24 356.237 365.512C355.661 363.72 355.437 361.64 355.565 359.272C355.693 356.904 355.981 354.216 356.429 351.208L358.445 337.096C358.765 334.792 359.085 333.064 359.405 331.912C359.725 330.696 360.365 329.896 361.325 329.512C362.349 329.064 364.077 328.84 366.509 328.84H378.509L374.957 354.28C374.637 356.904 374.669 358.824 375.053 360.04C375.501 361.256 376.365 362.056 377.645 362.44C378.989 362.824 380.717 363.016 382.829 363.016C386.349 363.016 388.845 362.408 390.317 361.192C391.853 359.912 392.877 357.64 393.389 354.376L396.941 328.84H408.749C411.245 328.84 412.941 329.064 413.837 329.512C414.733 329.896 415.181 330.696 415.181 331.912C415.245 333.064 415.117 334.792 414.797 337.096L412.973 350.056ZM430.485 361.096C432.021 361.8 434.069 362.312 436.629 362.632C439.253 362.888 441.973 363.08 444.789 363.208C447.605 363.272 450.101 363.304 452.277 363.304C453.109 363.304 454.165 363.304 455.445 363.304C456.789 363.24 457.877 363.208 458.709 363.208C460.117 363.144 461.301 362.984 462.261 362.728C463.221 362.408 463.957 361.992 464.469 361.48C465.045 360.904 465.397 360.136 465.525 359.176C465.653 358.408 465.557 357.8 465.237 357.352C464.981 356.84 464.501 356.488 463.797 356.296C463.157 356.104 462.325 356.008 461.301 356.008C460.597 356.008 459.797 356.008 458.901 356.008C458.069 356.008 456.917 356.008 455.445 356.008C454.037 356.008 452.085 356.008 449.589 356.008C447.413 356.008 445.269 355.912 443.157 355.72C441.045 355.528 439.189 355.048 437.589 354.28C435.989 353.512 434.773 352.296 433.941 350.632C433.173 348.968 433.013 346.632 433.461 343.624C433.973 340.104 434.933 337.352 436.341 335.368C437.813 333.32 439.733 331.816 442.101 330.856C444.469 329.832 447.189 329.192 450.261 328.936C453.397 328.616 456.885 328.456 460.725 328.456C463.029 328.456 465.493 328.488 468.117 328.552C470.741 328.552 473.173 328.616 475.413 328.744C477.717 328.872 479.445 329 480.597 329.128C483.221 329.256 485.141 329.96 486.357 331.24C487.637 332.456 488.117 333.96 487.797 335.752C487.797 336.008 487.733 336.488 487.605 337.192C487.541 337.896 487.445 338.6 487.317 339.304C487.253 339.944 487.221 340.296 487.221 340.36C486.901 339.976 486.037 339.688 484.629 339.496C483.285 339.24 481.685 339.048 479.829 338.92C477.973 338.792 476.117 338.728 474.261 338.728C472.405 338.664 470.773 338.632 469.365 338.632H459.573C458.037 338.632 456.821 338.76 455.925 339.016C455.029 339.272 454.389 339.656 454.005 340.168C453.621 340.68 453.365 341.352 453.237 342.184C453.109 342.824 453.109 343.368 453.237 343.816C453.365 344.264 453.717 344.616 454.293 344.872C454.869 345.128 455.701 345.256 456.789 345.256C461.205 345.256 464.661 345.256 467.157 345.256C469.717 345.256 471.221 345.256 471.669 345.256C474.933 345.256 477.685 345.544 479.925 346.12C482.165 346.632 483.829 347.816 484.917 349.672C486.005 351.464 486.261 354.28 485.685 358.12C485.173 361.64 484.085 364.488 482.421 366.664C480.757 368.776 478.645 370.344 476.085 371.368C473.589 372.328 470.709 372.904 467.445 373.096C463.733 373.288 460.245 373.384 456.981 373.384C453.781 373.448 450.357 373.448 446.709 373.384C443.829 373.32 441.269 373.192 439.029 373C436.789 372.872 434.933 372.584 433.461 372.136C432.053 371.688 430.997 371.08 430.293 370.312C429.653 369.48 429.429 368.456 429.621 367.24L430.485 361.096ZM508.303 328.84H564.751L563.407 338.728H544.687L540.751 367.048C540.495 368.584 540.143 369.8 539.695 370.696C539.311 371.592 538.671 372.2 537.775 372.52C536.879 372.84 535.503 373 533.647 373H520.975L525.775 338.728H506.863L508.303 328.84Z" fill="#32C4A2"/>
<path d="M792.231 373.384C787.879 373.256 784.103 372.904 780.903 372.328C777.703 371.688 775.111 370.6 773.127 369.064C771.143 367.528 769.767 365.32 768.999 362.44C768.295 359.56 768.263 355.816 768.903 351.208C769.671 346.152 771.015 342.088 772.935 339.016C774.919 335.944 777.479 333.672 780.615 332.2C783.815 330.664 787.527 329.64 791.751 329.128C796.039 328.616 800.839 328.36 806.151 328.36C808.839 328.36 811.431 328.392 813.927 328.456C816.487 328.52 818.759 328.648 820.743 328.84C822.727 328.968 824.231 329.16 825.255 329.416C827.175 329.736 828.487 330.312 829.191 331.144C829.959 331.912 830.375 332.776 830.439 333.736C830.503 334.696 830.471 335.656 830.343 336.616L829.671 341.128C829.415 340.552 828.551 340.104 827.079 339.784C825.607 339.4 823.847 339.112 821.799 338.92C819.815 338.664 817.767 338.504 815.655 338.44C813.607 338.312 811.751 338.248 810.087 338.248C808.487 338.184 807.399 338.152 806.823 338.152C802.343 338.152 798.791 338.472 796.167 339.112C793.607 339.688 791.687 340.904 790.407 342.76C789.127 344.552 788.199 347.368 787.623 351.208C787.239 354.6 787.367 357.16 788.007 358.888C788.647 360.616 789.863 361.8 791.655 362.44C793.447 363.016 795.783 363.304 798.663 363.304C802.247 363.304 804.999 363.112 806.919 362.728C808.839 362.344 810.215 361.736 811.047 360.904C811.879 360.072 812.423 358.952 812.679 357.544C812.679 357.096 812.711 356.712 812.775 356.392C812.839 356.072 812.903 355.784 812.967 355.528H794.535C794.855 352.968 795.271 351.016 795.783 349.672C796.295 348.264 797.159 347.272 798.375 346.696C799.655 346.056 801.639 345.736 804.327 345.736H830.727L829.095 357.448C828.519 361.224 827.335 364.232 825.543 366.472C823.815 368.648 821.511 370.216 818.631 371.176C815.815 372.136 812.487 372.744 808.647 373C804.871 373.256 800.647 373.384 795.975 373.384C795.335 373.384 794.695 373.384 794.055 373.384C793.415 373.384 792.807 373.384 792.231 373.384ZM906.14 350.056C905.628 353.32 905.052 356.232 904.412 358.792C903.836 361.352 902.94 363.56 901.724 365.416C900.508 367.208 898.78 368.68 896.54 369.832C894.364 370.984 891.484 371.848 887.9 372.424C884.38 372.936 879.932 373.192 874.556 373.192C868.988 373.192 864.476 372.936 861.02 372.424C857.564 371.848 854.908 370.984 853.052 369.832C851.26 368.68 850.044 367.24 849.404 365.512C848.828 363.72 848.604 361.64 848.732 359.272C848.86 356.904 849.148 354.216 849.596 351.208L851.612 337.096C851.932 334.792 852.252 333.064 852.572 331.912C852.892 330.696 853.532 329.896 854.492 329.512C855.516 329.064 857.244 328.84 859.676 328.84H871.676L868.124 354.28C867.804 356.904 867.836 358.824 868.22 360.04C868.668 361.256 869.532 362.056 870.812 362.44C872.156 362.824 873.884 363.016 875.996 363.016C879.516 363.016 882.012 362.408 883.484 361.192C885.02 359.912 886.044 357.64 886.556 354.376L890.108 328.84H901.916C904.412 328.84 906.108 329.064 907.004 329.512C907.9 329.896 908.348 330.696 908.348 331.912C908.412 333.064 908.284 334.792 907.964 337.096L906.14 350.056ZM915.463 373L936.679 336.712C938.279 334.152 940.231 332.136 942.535 330.664C944.903 329.192 948.295 328.456 952.711 328.456C956.295 328.456 959.143 329.16 961.255 330.568C963.431 331.912 964.935 333.96 965.767 336.712L976.807 373H956.359L953.479 363.976H934.951L929.863 373H915.463ZM938.983 356.968H950.983L947.815 345.64C947.751 345.32 947.655 345 947.527 344.68C947.399 344.36 947.175 344.2 946.855 344.2C946.535 344.2 946.247 344.36 945.991 344.68C945.799 345 945.639 345.32 945.511 345.64L938.983 356.968ZM1026.21 359.368C1026.21 359.368 1025.66 359.368 1024.57 359.368C1023.55 359.368 1022.27 359.4 1020.73 359.464C1019.26 359.464 1017.82 359.464 1016.41 359.464L1014.49 373H995.582L1000.86 335.08C1001.12 333.224 1001.73 331.72 1002.69 330.568C1003.71 329.416 1005.63 328.84 1008.45 328.84C1009.41 328.84 1010.91 328.84 1012.96 328.84C1015.07 328.776 1017.47 328.744 1020.16 328.744C1022.85 328.744 1025.63 328.744 1028.51 328.744C1031.45 328.68 1034.24 328.68 1036.86 328.744C1039.55 328.744 1041.89 328.776 1043.87 328.84C1045.85 328.84 1047.23 328.872 1048 328.936C1051.39 329.256 1053.85 330.28 1055.39 332.008C1056.99 333.736 1057.5 336.616 1056.93 340.648C1056.35 344.488 1055.74 347.208 1055.1 348.808C1054.46 350.408 1053.53 351.624 1052.32 352.456C1051.74 352.904 1050.97 353.256 1050.01 353.512C1049.05 353.704 1048.03 353.8 1046.94 353.8L1046.85 354.28C1047.36 354.28 1047.9 354.28 1048.48 354.28C1049.12 354.28 1049.66 354.312 1050.11 354.376C1051.71 354.696 1052.8 355.208 1053.37 355.912C1054.01 356.616 1054.37 357.448 1054.43 358.408C1054.49 359.368 1054.46 360.36 1054.33 361.384L1053.18 369.064C1052.99 370.408 1052.99 371.4 1053.18 372.04C1053.44 372.616 1053.6 372.936 1053.66 373H1039.45C1037.53 373 1036.06 372.712 1035.04 372.136C1034.08 371.56 1033.73 370.344 1033.98 368.488L1034.65 363.688C1034.97 361.704 1034.72 360.488 1033.89 360.04C1033.05 359.592 1031.55 359.368 1029.37 359.368H1026.21ZM1017.66 350.536C1018.24 350.536 1019.13 350.568 1020.35 350.632C1021.63 350.632 1023.01 350.632 1024.48 350.632C1026.01 350.632 1027.42 350.632 1028.7 350.632C1029.98 350.632 1030.88 350.632 1031.39 350.632C1032.73 350.632 1033.95 350.184 1035.04 349.288C1036.19 348.392 1036.93 346.76 1037.25 344.392C1037.5 342.728 1037.41 341.416 1036.96 340.456C1036.57 339.496 1035.74 338.92 1034.46 338.728C1033.69 338.6 1032.64 338.536 1031.29 338.536C1030.01 338.536 1028.64 338.536 1027.17 338.536C1025.76 338.536 1024.45 338.568 1023.23 338.632C1022.08 338.632 1021.25 338.632 1020.73 338.632C1020.61 338.632 1020.32 338.728 1019.87 338.92C1019.49 339.048 1019.23 339.432 1019.1 340.072L1017.66 350.536ZM1070.78 373L1092 336.712C1093.6 334.152 1095.55 332.136 1097.85 330.664C1100.22 329.192 1103.61 328.456 1108.03 328.456C1111.61 328.456 1114.46 329.16 1116.57 330.568C1118.75 331.912 1120.25 333.96 1121.08 336.712L1132.12 373H1111.68L1108.8 363.976H1090.27L1085.18 373H1070.78ZM1094.3 356.968H1106.3L1103.13 345.64C1103.07 345.32 1102.97 345 1102.84 344.68C1102.72 344.36 1102.49 344.2 1102.17 344.2C1101.85 344.2 1101.56 344.36 1101.31 344.68C1101.12 345 1100.96 345.32 1100.83 345.64L1094.3 356.968ZM1150.9 373L1156.28 334.792C1156.47 333.192 1156.76 331.976 1157.14 331.144C1157.59 330.248 1158.29 329.64 1159.25 329.32C1160.21 329 1161.62 328.84 1163.48 328.84H1181.52L1196.12 353.896L1196.31 356.872L1200.15 328.84H1213.97C1213.84 328.968 1213.68 329.416 1213.49 330.184C1213.3 330.952 1213.14 331.816 1213.01 332.776C1212.95 333.672 1212.85 334.472 1212.72 335.176L1208.12 368.008C1207.8 370.248 1207.06 371.656 1205.91 372.232C1204.76 372.744 1202.8 373 1200.05 373H1183.64L1168.56 347.176L1168.47 344.104L1164.44 373H1150.9ZM1233.79 328.84H1290.24L1288.89 338.728H1270.17L1266.24 367.048C1265.98 368.584 1265.63 369.8 1265.18 370.696C1264.8 371.592 1264.16 372.2 1263.26 372.52C1262.36 372.84 1260.99 373 1259.13 373H1246.46L1251.26 338.728H1232.35L1233.79 328.84ZM1303.78 373L1308.96 335.656C1309.28 333.928 1309.57 332.584 1309.83 331.624C1310.08 330.6 1310.66 329.896 1311.56 329.512C1312.52 329.064 1314.05 328.84 1316.16 328.84H1362.92L1361.57 338.536H1327.59L1326.53 345.736H1357.25L1355.91 355.432H1325.28L1324.13 363.304H1358.12L1356.77 373H1303.78ZM1377.5 373L1382.68 335.656C1383 333.928 1383.29 332.584 1383.55 331.624C1383.8 330.6 1384.38 329.896 1385.28 329.512C1386.24 329.064 1387.77 328.84 1389.88 328.84H1436.64L1435.29 338.536H1401.31L1400.25 345.736H1430.97L1429.63 355.432H1399L1397.85 363.304H1431.84L1430.49 373H1377.5Z" fill="#FF5667"/>
</g>
<defs>
<clipPath id="clip0_89_30">
<rect width="1440" height="377" fill="white"/>
</clipPath>
</defs>
</svg>
